<svg width="790" height="800" viewBox="0 0 790 800" fill="none" xmlns="http://www.w3.org/2000/svg">
<path d="M122 467.92C130.394 467.92 137.2 463.909 137.2 458.96C137.2 454.011 130.394 450 122 450C113.606 450 106.8 454.011 106.8 458.96C106.8 463.909 113.606 467.92 122 467.92Z" fill="#153144"/>
<path d="M297.52 346.4H192.64C185.92 346.4 180.48 340.96 180.48 334.24V318.48L144.56 325.68L180.48 292.32V241.28C180.48 234.56 185.92 229.12 192.64 229.12H297.52C304.24 229.12 309.68 234.56 309.68 241.28V334.24C309.68 340.96 304.24 346.4 297.52 346.4Z" stroke="#153144" stroke-width="8" stroke-miterlimit="10" stroke-linecap="round" stroke-linejoin="round"/>
<path d="M657.6 559.76C654.32 522.96 626.88 494.16 593.52 494.16C560.16 494.16 532.64 522.96 529.44 559.76H657.6Z" fill="#FF4848"/>
<path opacity="0.3" d="M612.8 519.2C612.8 510.64 610.32 502.56 606.08 495.52C602 494.64 597.84 494.16 593.52 494.16C560.16 494.16 532.64 522.96 529.44 559.76H589.28C603.44 550.72 612.8 535.92 612.8 519.2Z" fill="#4B3333"/>
<path d="M691.6 559.76C689.84 540.24 675.28 524.96 657.6 524.96C639.92 524.96 625.36 540.24 623.6 559.76H691.6Z" fill="#FF4848"/>
<path opacity="0.3" d="M667.84 538.24C667.84 533.68 666.56 529.44 664.24 525.68C662.08 525.2 659.84 524.96 657.6 524.96C639.92 524.96 625.36 540.24 623.6 559.76H655.36C662.88 554.96 667.84 547.12 667.84 538.24Z" fill="#6B1B2E"/>
<path d="M596.56 518.48V559.76" stroke="#153144" stroke-width="8" stroke-miterlimit="10" stroke-linecap="round" stroke-linejoin="round"/>
<path d="M574.96 524.96L596.56 538.32" stroke="#153144" stroke-width="8" stroke-miterlimit="10" stroke-linecap="round" stroke-linejoin="round"/>
<path d="M596.96 553.04L613.92 539.12" stroke="#153144" stroke-width="8" stroke-miterlimit="10" stroke-linecap="round" stroke-linejoin="round"/>
<path d="M630.16 421.36C663.297 421.36 690.16 383.035 690.16 335.76C690.16 288.485 663.297 250.16 630.16 250.16C597.023 250.16 570.16 288.485 570.16 335.76C570.16 383.035 597.023 421.36 630.16 421.36Z" fill="#FF4848"/>
<path opacity="0.3" d="M570.16 335.76C570.16 354.16 574.24 371.2 581.2 385.2C587.44 388.72 594.16 390.64 601.2 390.64C631.36 390.64 655.84 355.76 655.84 312.64C655.84 287.2 647.28 264.64 634.08 250.4C632.8 250.24 631.44 250.24 630.16 250.24C597.04 250.16 570.16 288.48 570.16 335.76Z" fill="#6B1B2E"/>
<path d="M697.04 559.76H190.4C183.44 559.76 177.76 554.08 177.76 547.12C177.76 540.16 183.44 534.48 190.4 534.48H206.56C212.16 534.48 216.72 529.92 216.72 524.32C216.72 518.72 212.16 514.16 206.56 514.16H148.8C142.8 514.16 138 509.36 138 503.36C138 497.36 142.8 492.56 148.8 492.56H160.96C169.68 492.56 176.72 485.52 176.72 476.8C176.72 468.08 169.68 461.04 160.96 461.04H122" stroke="#153144" stroke-width="8" stroke-miterlimit="10" stroke-linecap="round" stroke-linejoin="round"/>
<path d="M738.08 559.76H714.64" stroke="#153144" stroke-width="8" stroke-miterlimit="10" stroke-linecap="round" stroke-linejoin="round"/>
<path d="M93.52 348.4C108.8 331.68 135.12 331.68 150.4 348.4C161.04 360.08 163.44 377.2 156.48 391.36L122 461.04L87.52 391.36C80.48 377.2 82.88 360.08 93.52 348.4Z" fill="#FF4848"/>
<path d="M93.52 363.44C108.8 346.72 135.12 346.72 150.4 363.44C155.2 368.72 158.32 375.12 159.68 381.84C162.08 370 158.8 357.52 150.4 348.32C135.12 331.6 108.8 331.6 93.52 348.32C85.12 357.52 81.84 370 84.24 381.84C85.6 375.12 88.72 368.8 93.52 363.44Z" fill="#D83B3B"/>
<path d="M93.52 348.4C108.8 331.68 135.12 331.68 150.4 348.4C161.04 360.08 163.44 377.2 156.48 391.36L122 461.04L87.52 391.36C80.48 377.2 82.88 360.08 93.52 348.4Z" stroke="#153144" stroke-width="8" stroke-miterlimit="10" stroke-linecap="round" stroke-linejoin="round"/>
<path d="M122 392.8C132.294 392.8 140.64 384.454 140.64 374.16C140.64 363.866 132.294 355.52 122 355.52C111.706 355.52 103.36 363.866 103.36 374.16C103.36 384.454 111.706 392.8 122 392.8Z" fill="white"/>
<path d="M122 392.8C132.294 392.8 140.64 384.454 140.64 374.16C140.64 363.866 132.294 355.52 122 355.52C111.706 355.52 103.36 363.866 103.36 374.16C103.36 384.454 111.706 392.8 122 392.8Z" stroke="#153144" stroke-width="8" stroke-miterlimit="10" stroke-linecap="round" stroke-linejoin="round"/>
<path d="M627.28 294.48C630.638 294.48 633.36 288.248 633.36 280.56C633.36 272.872 630.638 266.64 627.28 266.64C623.922 266.64 621.2 272.872 621.2 280.56C621.2 288.248 623.922 294.48 627.28 294.48Z" stroke="#153144" stroke-width="6" stroke-miterlimit="10" stroke-linecap="round" stroke-linejoin="round"/>
<path d="M612.914 336.626C615.324 334.288 612.938 327.919 607.585 322.401C602.232 316.882 595.938 314.304 593.528 316.642C591.118 318.981 593.504 325.35 598.857 330.868C604.21 336.386 610.503 338.964 612.914 336.626Z" stroke="#153144" stroke-width="6" stroke-miterlimit="10" stroke-linecap="round" stroke-linejoin="round"/>
<path d="M558.954 409.481C562.889 402.878 563.741 396.13 560.856 394.411C557.972 392.693 552.443 396.653 548.508 403.256C544.573 409.86 543.721 416.607 546.605 418.326C549.49 420.045 555.018 416.085 558.954 409.481Z" stroke="#153144" stroke-width="6" stroke-miterlimit="10" stroke-linecap="round" stroke-linejoin="round"/>
<path d="M676.421 500.161C679.778 500.156 682.491 493.92 682.481 486.232C682.47 478.544 679.739 472.316 676.381 472.321C673.023 472.326 670.31 478.562 670.321 486.249C670.332 493.937 673.062 500.166 676.421 500.161Z" stroke="#153144" stroke-width="6" stroke-miterlimit="10" stroke-linecap="round" stroke-linejoin="round"/>
<path d="M662.341 318.616C666.702 312.286 667.998 305.61 665.232 303.705C662.467 301.799 656.69 305.386 652.328 311.716C647.966 318.046 646.671 324.722 649.436 326.628C652.201 328.533 657.978 324.946 662.341 318.616Z" stroke="#153144" stroke-width="6" stroke-miterlimit="10" stroke-linecap="round" stroke-linejoin="round"/>
<path d="M658.53 380.924C661.914 376.012 662.918 370.832 660.771 369.353C658.625 367.874 654.141 370.656 650.757 375.567C647.373 380.478 646.369 385.659 648.515 387.138C650.662 388.618 655.146 385.835 658.53 380.924Z" stroke="#153144" stroke-width="6" stroke-miterlimit="10" stroke-linecap="round" stroke-linejoin="round"/>
<path d="M630.16 368.56L648.16 352.56" stroke="#153144" stroke-width="8" stroke-miterlimit="10" stroke-linecap="round" stroke-linejoin="round"/>
<path d="M630.16 395.76L607.76 378.24" stroke="#153144" stroke-width="8" stroke-miterlimit="10" stroke-linecap="round" stroke-linejoin="round"/>
<path d="M225.6 304.96H209.2V267.04H196L203.92 251.76" stroke="#FF4848" stroke-width="5" stroke-miterlimit="10" stroke-linecap="round" stroke-linejoin="round"/>
<path d="M213.2 300.96V263.04H202.56L208.4 251.76H225.6V300.96H213.2Z" fill="#153144"/>
<path d="M290.16 304.96H271.28L261.12 291.04V304.96H239.68V251.28" stroke="#FF4848" stroke-width="5" stroke-miterlimit="10" stroke-linecap="round" stroke-linejoin="round"/>
<path d="M243.68 300.96V251.28H257.12V273.84L272.8 251.28H288.56L270.16 275.52L290.08 300.96H273.2L257.04 278.64V300.96H243.68Z" fill="#153144"/>
<path d="M201.52 317.04H207.28V318.16H202.8V321.6H206.4V322.72H202.8V327.36H201.44V317.04H201.52Z" fill="#FF4848"/>
<path d="M213.6 327.44C210.72 327.44 208.48 325.28 208.48 322.24C208.48 319.2 210.72 317.04 213.6 317.04C216.48 317.04 218.72 319.2 218.72 322.24C218.72 325.28 216.48 327.44 213.6 327.44ZM213.6 326.24C215.76 326.24 217.36 324.64 217.36 322.16C217.36 319.68 215.76 318.08 213.6 318.08C211.44 318.08 209.84 319.6 209.84 322.16C209.76 324.64 211.44 326.24 213.6 326.24Z" fill="#FF4848"/>
<path d="M221.76 317.04V326.16H225.36V327.28H220.48V317.04H221.76Z" fill="#FF4848"/>
<path d="M228.16 317.04V326.16H231.76V327.28H226.88V317.04H228.16Z" fill="#FF4848"/>
<path d="M237.76 327.44C234.88 327.44 232.64 325.28 232.64 322.24C232.64 319.2 234.88 317.04 237.76 317.04C240.64 317.04 242.88 319.2 242.88 322.24C242.88 325.28 240.64 327.44 237.76 327.44ZM237.76 326.24C239.92 326.24 241.52 324.64 241.52 322.16C241.52 319.68 239.92 318.08 237.76 318.08C235.6 318.08 234 319.6 234 322.16C234 324.64 235.6 326.24 237.76 326.24Z" fill="#FF4848"/>
<path d="M243.84 317.04H245.28L247.52 325.68L250 317.04H251.52L253.84 325.68L256.08 317.04H257.52L254.56 327.28H253.04L250.64 319.04L248.16 327.28H246.64L243.84 317.04Z" fill="#FF4848"/>
<path d="M264.48 318.16H260.32V321.6H264.08V322.72H260.32V326.24H264.48V327.36H258.96V317.12H264.48V318.16Z" fill="#FF4848"/>
<path d="M269.84 317.04C272.24 317.04 273.36 318.4 273.36 320.08C273.36 321.36 272.64 322.64 270.96 323.04L273.52 327.36H271.92L269.52 323.2H267.92V327.36H266.56V317.12H269.84V317.04ZM269.84 318.16H267.84V322H269.84C271.36 322 272 321.2 272 320C272 318.96 271.36 318.16 269.84 318.16Z" fill="#FF4848"/>
<path d="M278.64 327.44C276.56 327.44 275.12 326.32 275.12 324.64H276.56C276.64 325.52 277.28 326.32 278.64 326.32C279.92 326.32 280.72 325.6 280.72 324.64C280.72 321.92 275.2 323.68 275.2 319.84C275.2 318.16 276.56 317.04 278.56 317.04C280.48 317.04 281.76 318.08 281.92 319.68H280.48C280.4 318.96 279.76 318.24 278.48 318.16C277.36 318.16 276.48 318.72 276.48 319.84C276.48 322.48 282 320.8 282 324.64C282.08 326 280.88 327.44 278.64 327.44Z" fill="#FF4848"/>
<path d="M630.16 335.76V559.76" stroke="#153144" stroke-width="8" stroke-miterlimit="10" stroke-linecap="round" stroke-linejoin="round"/>
<path d="M375.76 400.8C375.76 400.8 366.08 414.24 364.88 415.44C363.68 416.64 332.24 421.28 332.24 421.28L328.72 433.04C328.72 433.04 367.76 430.24 371.36 426.64C374.96 423.04 384.96 410.08 384.96 410.08L375.76 400.8Z" fill="white"/>
<path d="M375.76 400.8C375.76 400.8 366.08 414.24 364.88 415.44C363.68 416.64 328.64 421.28 328.64 421.28L325.12 433.04C325.12 433.04 367.68 430.24 371.28 426.64C374.88 423.04 384.88 410.08 384.88 410.08L375.76 400.8Z" stroke="#153144" stroke-width="8" stroke-miterlimit="10" stroke-linecap="round" stroke-linejoin="round"/>
<path d="M450.48 559.76C476.857 559.76 498.24 538.377 498.24 512C498.24 485.623 476.857 464.24 450.48 464.24C424.103 464.24 402.72 485.623 402.72 512C402.72 538.377 424.103 559.76 450.48 559.76Z" fill="white"/>
<path d="M304.8 559.76C331.177 559.76 352.56 538.377 352.56 512C352.56 485.623 331.177 464.24 304.8 464.24C278.423 464.24 257.04 485.623 257.04 512C257.04 538.377 278.423 559.76 304.8 559.76Z" fill="white"/>
<path d="M304.8 559.76C331.177 559.76 352.56 538.377 352.56 512C352.56 485.623 331.177 464.24 304.8 464.24C278.423 464.24 257.04 485.623 257.04 512C257.04 538.377 278.423 559.76 304.8 559.76Z" stroke="#153144" stroke-width="8" stroke-miterlimit="10" stroke-linecap="round" stroke-linejoin="round"/>
<path d="M304.8 543.76C287.28 543.76 273.04 529.52 273.04 512C273.04 494.48 287.28 480.24 304.8 480.24C322.32 480.24 336.56 494.48 336.56 512C336.56 529.52 322.32 543.76 304.8 543.76Z" fill="#90CAF8"/>
<path d="M276.88 527.04C274.48 522.56 273.12 517.44 273.12 512C273.12 501.36 278.32 492 286.4 486.24" stroke="#153144" stroke-width="6" stroke-miterlimit="10" stroke-linecap="round" stroke-linejoin="round"/>
<path d="M323.28 497.12C326.56 501.2 328.48 506.32 328.48 512C328.48 514.96 327.92 517.76 326.96 520.32" stroke="#153144" stroke-width="6" stroke-miterlimit="10" stroke-linecap="round" stroke-linejoin="round"/>
<path d="M304.8 512L328.64 433.04" stroke="#153144" stroke-width="8" stroke-miterlimit="10" stroke-linecap="round" stroke-linejoin="round"/>
<path d="M304.8 517.6C301.76 517.6 299.2 515.04 299.2 512C299.2 508.96 301.76 506.4 304.8 506.4C307.84 506.4 310.4 508.96 310.4 512C310.4 515.04 307.84 517.6 304.8 517.6Z" fill="#EF2C54"/>
<path d="M304.8 517.6C301.76 517.6 299.2 515.04 299.2 512C299.2 508.96 301.76 506.4 304.8 506.4C307.84 506.4 310.4 508.96 310.4 512C310.4 515.04 307.84 517.6 304.8 517.6Z" stroke="#153144" stroke-width="8" stroke-miterlimit="10" stroke-linecap="round" stroke-linejoin="round"/>
<path d="M450.48 559.76C476.857 559.76 498.24 538.377 498.24 512C498.24 485.623 476.857 464.24 450.48 464.24C424.103 464.24 402.72 485.623 402.72 512C402.72 538.377 424.103 559.76 450.48 559.76Z" stroke="#153144" stroke-width="8" stroke-miterlimit="10" stroke-linecap="round" stroke-linejoin="round"/>
<path d="M450.48 543.76C432.96 543.76 418.72 529.52 418.72 512C418.72 494.48 432.96 480.24 450.48 480.24C468 480.24 482.24 494.48 482.24 512C482.24 529.52 468 543.76 450.48 543.76Z" fill="#90CAF8"/>
<path d="M456.4 480.8C471.12 483.6 482.24 496.48 482.24 512" stroke="#153144" stroke-width="6" stroke-miterlimit="10" stroke-linecap="round" stroke-linejoin="round"/>
<path d="M446.08 535.36C440.08 534.24 434.88 530.8 431.36 526.08" stroke="#153144" stroke-width="6" stroke-miterlimit="10" stroke-linecap="round" stroke-linejoin="round"/>
<path d="M327.76 447.84L371.68 513.6L450.8 513.52L406.88 447.76L327.76 447.84Z" stroke="#153144" stroke-width="8" stroke-miterlimit="10" stroke-linecap="round" stroke-linejoin="round"/>
<path d="M374.88 390.64C386.456 390.64 395.84 381.256 395.84 369.68C395.84 358.104 386.456 348.72 374.88 348.72C363.304 348.72 353.92 358.104 353.92 369.68C353.92 381.256 363.304 390.64 374.88 390.64Z" fill="white"/>
<path d="M385.04 361.12L369.52 390.64" stroke="#153144" stroke-width="8" stroke-miterlimit="10" stroke-linecap="round" stroke-linejoin="round"/>
<path d="M374.88 390.64C386.456 390.64 395.84 381.256 395.84 369.68C395.84 358.104 386.456 348.72 374.88 348.72C363.304 348.72 353.92 358.104 353.92 369.68C353.92 381.256 363.304 390.64 374.88 390.64Z" stroke="#153144" stroke-width="8" stroke-miterlimit="10" stroke-linecap="round" stroke-linejoin="round"/>
<path d="M401.68 366.48C403.36 358.8 402.32 351.76 398.24 346.88C389.52 336.48 369.36 339.36 352.4 353.6C347.76 357.52 343.84 361.84 340.64 366.4H401.68V366.48Z" fill="#FF4848"/>
<path d="M398.24 346.88C392.88 340.48 383.28 339.12 372.72 342.32C378.4 342.64 383.2 344.64 386.4 348.48C390.16 353.04 391.36 359.36 390.16 366.48H401.68C403.28 358.72 402.32 351.76 398.24 346.88Z" fill="#C94242"/>
<path d="M401.68 366.48C403.36 358.8 402.32 351.76 398.24 346.88C389.52 336.48 369.36 339.36 352.4 353.6C347.76 357.52 343.84 361.84 340.64 366.4H401.68V366.48Z" stroke="#153144" stroke-width="8" stroke-miterlimit="10" stroke-linecap="round" stroke-linejoin="round"/>
<path d="M383.28 458.96C383.28 458.96 377.2 463.92 374.96 466.16C372.72 468.4 373.76 510.4 373.76 510.4H385.12C385.12 510.4 388.96 476.96 390.48 475.44C391.92 474 400.16 468.48 400.16 468.48L383.28 458.96Z" fill="white"/>
<path d="M383.28 458.96C383.28 458.96 377.2 463.92 374.96 466.16C372.72 468.4 373.76 510.4 373.76 510.4H385.12C385.12 510.4 388.96 476.96 390.48 475.44C391.92 474 400.16 468.48 400.16 468.48L383.28 458.96Z" stroke="#153144" stroke-width="8" stroke-miterlimit="10" stroke-linecap="round" stroke-linejoin="round"/>
<path d="M373.76 400.56L384.32 414.16L389.28 408.32L406.64 437.68L446.08 440.08C446.08 440.08 420.56 398.72 408.32 389.68C396.08 380.64 389.6 384.8 386.8 387.52C384.08 390.24 373.76 400.56 373.76 400.56Z" fill="#90CAF8"/>
<path d="M420.96 438.48C418.72 414.48 404.96 394.72 386.64 387.6C383.68 390.56 373.76 400.48 373.76 400.48L384.32 414.08L389.28 408.24L406.64 437.6L420.96 438.48Z" fill="#74BAE8"/>
<path d="M373.76 400.56L384.32 414.16L389.28 408.32L406.64 440.08H446.08C446.08 440.08 420.56 398.72 408.32 389.68C396.08 380.64 389.6 384.8 386.8 387.52C384.08 390.24 373.76 400.56 373.76 400.56Z" stroke="#153144" stroke-width="8" stroke-miterlimit="10" stroke-linecap="round" stroke-linejoin="round"/>
<path d="M390 523.36H363.12V518.96C363.12 515.04 366.16 511.84 370 511.6L389.92 510.48V523.36H390Z" fill="#153144"/>
<path d="M390 523.36H363.12V518.96C363.12 515.04 366.16 511.84 370 511.6L389.92 510.48V523.36H390Z" stroke="#153144" stroke-width="8" stroke-miterlimit="10" stroke-linecap="round" stroke-linejoin="round"/>
<path d="M381.52 457.6L400.08 471.76C400.08 471.76 440 458.16 446.08 440C415.68 440 406.64 440 406.64 440L381.52 457.6Z" fill="#FF4848"/>
<path opacity="0.63" d="M420.24 440C410.16 440 406.64 440 406.64 440L381.52 457.6L386 461.04C386.96 460.88 387.92 460.72 388.96 460.56C404.64 457.36 416.88 448.96 420.24 440Z" fill="#C94242"/>
<path d="M381.52 457.6L400.08 471.76C400.08 471.76 440 458.16 446.08 440C415.68 440 406.64 440 406.64 440L381.52 457.6Z" stroke="#153144" stroke-width="8" stroke-miterlimit="10" stroke-linecap="round" stroke-linejoin="round"/>
<path d="M450.8 519.2C447.76 519.2 445.2 516.64 445.2 513.6C445.2 510.56 447.76 508 450.8 508C453.84 508 456.4 510.56 456.4 513.6C456.4 516.64 453.84 519.2 450.8 519.2Z" fill="#EF2C54"/>
<path d="M450.8 519.2C447.76 519.2 445.2 516.64 445.2 513.6C445.2 510.56 447.76 508 450.8 508C453.84 508 456.4 510.56 456.4 513.6C456.4 516.64 453.84 519.2 450.8 519.2Z" stroke="#153144" stroke-width="8" stroke-miterlimit="10" stroke-linecap="round" stroke-linejoin="round"/>
<path d="M439.84 348.16H446.08" stroke="#153144" stroke-width="8" stroke-miterlimit="10" stroke-linecap="round" stroke-linejoin="round"/>
<path d="M390 348.16H429.36" stroke="#153144" stroke-width="8" stroke-miterlimit="10" stroke-linecap="round" stroke-linejoin="round"/>
<path d="M470.96 524.96H529.36" stroke="#153144" stroke-width="8" stroke-miterlimit="10" stroke-linecap="round" stroke-linejoin="round"/>
<path d="M540.24 494.16H545.84" stroke="#153144" stroke-width="8" stroke-miterlimit="10" stroke-linecap="round" stroke-linejoin="round"/>
<path d="M507.36 494.16H529.36" stroke="#153144" stroke-width="8" stroke-miterlimit="10" stroke-linecap="round" stroke-linejoin="round"/>
<path d="M441.04 392.8H471.68" stroke="#153144" stroke-width="8" stroke-miterlimit="10" stroke-linecap="round" stroke-linejoin="round"/>
<path d="M276.88 461.04H250.08" stroke="#153144" stroke-width="8" stroke-miterlimit="10" stroke-linecap="round" stroke-linejoin="round"/>
<path d="M299.76 447.76H286.32" stroke="#153144" stroke-width="8" stroke-miterlimit="10" stroke-linecap="round" stroke-linejoin="round"/>
</svg>
